<svg xmlns="http://www.w3.org/2000/svg" viewBox="0 0 2288 2352"><path fill="#5a9e62" d="M1077.5 110.1c-35 4.7-59.2 16.8-123.5 61.8-82.5 57.8-105.8 71.6-209 124.1-32.2 16.4-79 40.6-104 53.9-48.7 25.9-109 56.3-165.5 83.5-135.9 65.5-168.9 89.6-206.9 151.5C250 615.2 199.3 735.7 153.3 859c-33.6 90-57.6 147.9-88.5 213-16.5 34.6-23.4 51.1-27.5 65.5-18.5 65.4 50.5 150.5 117.6 145.1 31.9-2.6 50.8-11.6 119.6-56.6l52.5-34c88-56.4 157.2-108.3 211-158.5l39.5-37.1c51.1-48.1 67-62.5 118-106.9 39.5-34.4 55.1-48.4 77.4-69.5 220.3-208.5 261-214.8 391.2-60.8 17.2 20.2 30.8 37.4 64.4 81.3 120.3 157.1 157.4 188.9 220.5 189 28 0 42.4-3.8 84.5-22.5 116.5-51.6 155.5-35.7 298.3 122.3 158 174.9 247 204.8 319.9 107.5 50.2-67.1 44.9-119.5-25.2-249.3a2357 2357 0 0 1-62-125l-32.8-70a1526 1526 0 0 1-48.4-110c-31.3-79.1-40-96.6-62.7-127-34.4-45.9-74.2-73.4-188.6-130.2a3247 3247 0 0 1-139.5-71.3c-44.6-24-105-54.5-168.3-84.9a1687 1687 0 0 1-185.7-101.6c-80-49.5-118.4-63.2-161-57.4M902 1110.7c-39.5 6.2-68.9 26.8-156.5 109.3A1556 1556 0 0 1 628 1322.5c-66 53.1-82.3 67.7-149.5 134.8-58.6 58.6-70.9 70-109.6 102.3-54.1 45.1-78.3 68.7-103.5 101-79.7 101.9-62.3 160.7 70.6 239.4a3177 3177 0 0 1 166.8 103.2c58.2 38.2 77.2 49.9 135.7 83.5a2350 2350 0 0 1 78.3 46.7c47.6 29.8 73 43.8 162.2 89.1 195.8 99.6 187.9 99.9 427-16.2 41.1-20 70.9-36.6 115-64.1 37.2-23.2 60.4-37 100.8-60.1 19.3-11 47.6-27.4 62.9-36.4 53.1-31.4 68.7-40 125.8-70.2a1619 1619 0 0 0 197-125.4c99.8-75.4 98-149.6-6.4-263.6-153-166.9-194.4-198.7-250.8-192.4-37 4.1-59.7 19.1-119.3 78.9-59.3 59.5-88.1 76.5-130 76.5-55.9 0-75.9-18.5-213-197-64-83.3-114.9-140.4-170.2-190.7-45.3-41.2-80.4-56.7-115.8-51.1"/><path fill="#376844" d="M895.5 1196c-40.6 4.5-95.5 31.5-145.2 71.3-20.7 16.5-31.3 26.1-73.8 67.1a1351 1351 0 0 1-92 81.6 1900 1900 0 0 0-91.5 80.5 3306 3306 0 0 1-82.5 74.5c-103.8 91.5-129.4 123.9-134.4 169.7-6.1 56.8 33.2 99.2 146.4 157.6a906 906 0 0 1 95.5 54.2c13.6 8.9 25 16.7 77 52.9 19.1 13.2 57.5 38.7 74.6 49.4 27.5 17.2 43.1 25.9 105.4 58.7 36.8 19.4 50 27.4 99 59.5 157.1 103.2 218.2 107.3 379.5 25.1a929 929 0 0 0 107-63.1c88.2-57.7 163.5-100.8 279.5-160 102.6-52.3 161-87.1 217.5-129.5 113.1-85 100.6-163.8-49.9-314-66.8-66.7-96.7-84.8-139.6-84.9-41.1-.1-62.5 12.9-130.5 79.4-73.9 72.4-106.7 89-156.8 79.6-56.6-10.7-90.4-42.3-176.2-164.6-92.3-131.5-114.1-156.5-170.5-195.4-56.1-38.7-98.7-54-138.5-49.6"/></svg>